<svg width="12" height="28" viewBox="0 0 12 28" fill="none" xmlns="http://www.w3.org/2000/svg">
<path d="M2.22932 20.4241L0.342651 22.3094L5.99998 27.9667L11.6573 22.3094L9.77065 20.4241L5.99998 24.1961L2.22932 20.4241Z" fill="#B4BBCE"/>
<path d="M9.77065 7.57611L11.6573 5.69078L5.99998 0.0334473L0.342651 5.69078L2.22932 7.57611L5.99998 3.80545L9.77065 7.57611Z" fill="#B4BBCE"/>
<path fill-rule="evenodd" clip-rule="evenodd" d="M6 10C7.06087 10 8.07828 10.4214 8.82843 11.1716C9.57857 11.9217 10 12.9391 10 14C10 15.0609 9.57857 16.0783 8.82843 16.8284C8.07828 17.5786 7.06087 18 6 18C4.93913 18 3.92172 17.5786 3.17157 16.8284C2.42143 16.0783 2 15.0609 2 14C2 12.9391 2.42143 11.9217 3.17157 11.1716C3.92172 10.4214 4.93913 10 6 10ZM6 12.6667C6.35362 12.6667 6.69276 12.8071 6.94281 13.0572C7.19286 13.3072 7.33333 13.6464 7.33333 14C7.33333 14.3536 7.19286 14.6928 6.94281 14.9428C6.69276 15.1929 6.35362 15.3333 6 15.3333C5.64638 15.3333 5.30724 15.1929 5.05719 14.9428C4.80714 14.6928 4.66667 14.3536 4.66667 14C4.66667 13.6464 4.80714 13.3072 5.05719 13.0572C5.30724 12.8071 5.64638 12.6667 6 12.6667Z" fill="#B4BBCE"/>
</svg>
