<svg width="26" height="29" viewBox="0 0 26 29" fill="none" xmlns="http://www.w3.org/2000/svg">
<path d="M23.7773 19.2667L25.38 20.228C25.4789 20.2872 25.5607 20.371 25.6175 20.4713C25.6744 20.5715 25.7042 20.6848 25.7042 20.8C25.7042 20.9152 25.6744 21.0285 25.6175 21.1288C25.5607 21.229 25.4789 21.3128 25.38 21.372L13.6867 28.388C13.4793 28.5126 13.2419 28.5784 13 28.5784C12.7581 28.5784 12.5207 28.5126 12.3133 28.388L0.62001 21.372C0.521138 21.3128 0.439297 21.229 0.382472 21.1288C0.325646 21.0285 0.295776 20.9152 0.295776 20.8C0.295776 20.6848 0.325646 20.5715 0.382472 20.4713C0.439297 20.371 0.521138 20.2872 0.62001 20.228L2.22268 19.2667L13 25.7333L23.7773 19.2667ZM23.7773 13L25.38 13.9613C25.4789 14.0205 25.5607 14.1043 25.6175 14.2046C25.6744 14.3048 25.7042 14.4181 25.7042 14.5333C25.7042 14.6486 25.6744 14.7618 25.6175 14.8621C25.5607 14.9623 25.4789 15.0462 25.38 15.1053L13 22.5333L0.62001 15.1053C0.521138 15.0462 0.439297 14.9623 0.382472 14.8621C0.325646 14.7618 0.295776 14.6486 0.295776 14.5333C0.295776 14.4181 0.325646 14.3048 0.382472 14.2046C0.439297 14.1043 0.521138 14.0205 0.62001 13.9613L2.22268 13L13 19.4667L23.7773 13ZM13.6853 0.745345L25.38 7.76134C25.4789 7.82053 25.5607 7.90434 25.6175 8.00459C25.6744 8.10484 25.7042 8.21811 25.7042 8.33334C25.7042 8.44858 25.6744 8.56185 25.6175 8.6621C25.5607 8.76235 25.4789 8.84615 25.38 8.90534L13 16.3333L0.62001 8.90534C0.521138 8.84615 0.439297 8.76235 0.382472 8.6621C0.325646 8.56185 0.295776 8.44858 0.295776 8.33334C0.295776 8.21811 0.325646 8.10484 0.382472 8.00459C0.439297 7.90434 0.521138 7.82053 0.62001 7.76134L12.3133 0.745345C12.5207 0.620754 12.7581 0.554932 13 0.554932C13.2419 0.554932 13.4793 0.620754 13.6867 0.745345H13.6853ZM13 3.44268L4.84934 8.33334L13 13.224L21.1507 8.33334L13 3.44268Z" fill="#2F80ED"/>
</svg>
