<svg width="24" height="28" viewBox="0 0 24 28" fill="none" xmlns="http://www.w3.org/2000/svg">
<path d="M2.66667 8.66675V24.6667H8V8.66675H2.66667ZM0 7.33342L5.33333 0.666748L10.6667 7.33342V27.3334H0V7.33342ZM21.3333 19.3334V16.6667H17.3333V14.0001H21.3333V11.3334H18.6667V8.66675H21.3333V6.00008H16V24.6667H21.3333V22.0001H18.6667V19.3334H21.3333ZM14.6667 3.33341H22.6667C23.0203 3.33341 23.3594 3.47389 23.6095 3.72394C23.8595 3.97399 24 4.31313 24 4.66675V26.0001C24 26.3537 23.8595 26.6928 23.6095 26.9429C23.3594 27.1929 23.0203 27.3334 22.6667 27.3334H14.6667C14.313 27.3334 13.9739 27.1929 13.7239 26.9429C13.4738 26.6928 13.3333 26.3537 13.3333 26.0001V4.66675C13.3333 4.31313 13.4738 3.97399 13.7239 3.72394C13.9739 3.47389 14.313 3.33341 14.6667 3.33341Z" fill="#1E88E5"/>
</svg>
