<svg width="28" height="28" viewBox="0 0 28 28" fill="none" xmlns="http://www.w3.org/2000/svg">
<path d="M6.00002 23.3334H2.00002C1.6464 23.3334 1.30726 23.1929 1.05721 22.9429C0.807163 22.6928 0.666687 22.3537 0.666687 22.0001V8.66675C0.666687 8.31313 0.807163 7.97399 1.05721 7.72394C1.30726 7.47389 1.6464 7.33342 2.00002 7.33342H6.00002V2.00008C6.00002 1.64646 6.1405 1.30732 6.39054 1.05727C6.64059 0.807224 6.97973 0.666748 7.33335 0.666748H20.6667C21.0203 0.666748 21.3594 0.807224 21.6095 1.05727C21.8595 1.30732 22 1.64646 22 2.00008V7.33342H26C26.3536 7.33342 26.6928 7.47389 26.9428 7.72394C27.1929 7.97399 27.3334 8.31313 27.3334 8.66675V22.0001C27.3334 22.3537 27.1929 22.6928 26.9428 22.9429C26.6928 23.1929 26.3536 23.3334 26 23.3334H22V26.0001C22 26.3537 21.8595 26.6928 21.6095 26.9429C21.3594 27.1929 21.0203 27.3334 20.6667 27.3334H7.33335C6.97973 27.3334 6.64059 27.1929 6.39054 26.9429C6.1405 26.6928 6.00002 26.3537 6.00002 26.0001V23.3334ZM6.00002 20.6667V19.3334C6.00002 18.9798 6.1405 18.6407 6.39054 18.3906C6.64059 18.1406 6.97973 18.0001 7.33335 18.0001H20.6667C21.0203 18.0001 21.3594 18.1406 21.6095 18.3906C21.8595 18.6407 22 18.9798 22 19.3334V20.6667H24.6667V10.0001H3.33335V20.6667H6.00002ZM8.66669 3.33341V7.33342H19.3334V3.33341H8.66669ZM8.66669 20.6667V24.6667H19.3334V20.6667H8.66669ZM4.66669 11.3334H8.66669V14.0001H4.66669V11.3334Z" fill="#2F80ED"/>
</svg>
