<svg width="1600" height="201" viewBox="0 0 1600 201" fill="none" xmlns="http://www.w3.org/2000/svg">
<path fill-rule="evenodd" clip-rule="evenodd" d="M0 28.5556L27 42.8333C53 57.1111 107 85.6667 160 90.4259C213 95.1852 267 76.1482 320 66.6296C373 57.1111 427 57.1111 480 61.8704C533 66.6296 587 76.1481 640 95.1852C693 114.222 747 142.778 800 152.296C853 161.815 907 152.296 960 128.5C1013 104.704 1067 66.6296 1120 47.5926C1173 28.5556 1227 28.5556 1280 33.3148C1333 38.0741 1387 47.5926 1440 42.8333C1493 38.0741 1547 19.037 1573 9.51852L1600 0V257H1573C1547 257 1493 257 1440 257C1387 257 1333 257 1280 257C1227 257 1173 257 1120 257C1067 257 1013 257 960 257C907 257 853 257 800 257C747 257 693 257 640 257C587 257 533 257 480 257C427 257 373 257 320 257C267 257 213 257 160 257C107 257 53 257 27 257H0V28.5556Z" fill="white"/>
</svg>
